<?xml version="1.0" standalone="no"?>
<!DOCTYPE svg PUBLIC "-//W3C//DTD SVG 20010904//EN"
 "http://www.w3.org/TR/2001/REC-SVG-20010904/DTD/svg10.dtd">
<svg version="1.0" xmlns="http://www.w3.org/2000/svg"
 width="640.000000pt" height="640.000000pt" viewBox="0 0 640.000000 640.000000"
 preserveAspectRatio="xMidYMid meet">
<metadata>
Created by potrace 1.14, written by Peter Selinger 2001-2017
</metadata>
<g transform="translate(0.000000,640.000000) scale(0.100000,-0.100000)"
fill="#000000" stroke="none">
<path d="M2930 5689 c-117 -12 -241 -30 -285 -41 -22 -6 -51 -12 -65 -15 -75
-13 -266 -74 -380 -121 -230 -94 -492 -253 -669 -405 -78 -67 -271 -266 -332
-342 -243 -302 -438 -722 -502 -1085 -20 -111 -24 -139 -34 -227 -10 -98 -10
-384 -1 -483 33 -330 118 -618 268 -907 132 -256 252 -418 464 -628 203 -202
395 -340 642 -463 159 -79 411 -171 540 -196 10 -2 53 -11 94 -19 156 -32 278
-42 480 -41 157 1 279 7 335 18 11 2 40 7 65 11 68 10 278 61 335 80 28 10 55
18 60 19 25 4 165 62 275 114 765 364 1301 1118 1396 1967 11 91 11 448 1 545
-74 716 -473 1383 -1073 1795 -256 175 -584 316 -888 379 -11 3 -32 7 -46 10
-13 3 -40 8 -60 10 -19 3 -73 10 -120 17 -102 14 -396 18 -500 8z m390 -143
c52 -4 106 -8 120 -11 14 -2 43 -6 65 -9 271 -33 617 -164 895 -339 601 -378
1018 -1056 1077 -1752 10 -111 9 -351 0 -465 -36 -412 -208 -848 -475 -1197
-88 -116 -269 -301 -387 -396 -186 -149 -343 -242 -620 -362 -49 -22 -214 -74
-295 -94 -74 -19 -107 -25 -185 -36 -22 -4 -47 -8 -55 -10 -25 -7 -209 -17
-310 -18 -95 -1 -319 11 -329 17 -3 2 -26 7 -51 10 -345 47 -735 214 -1050
452 -103 77 -295 260 -377 359 -233 280 -400 612 -486 965 -14 58 -29 132 -33
165 -3 33 -8 62 -9 65 -7 12 -18 211 -18 325 0 390 81 719 259 1064 221 427
556 769 974 994 209 113 473 208 670 241 143 24 155 25 265 32 55 4 101 7 102
8 4 3 155 -2 253 -8z"/>
<path d="M3668 3741 c-13 -11 -37 -38 -53 -60 -36 -54 -85 -83 -160 -96 l-60
-11 -3 -99 c-2 -61 1 -102 8 -109 10 -10 23 -12 97 -15 l23 -1 -1 -342 c0
-217 4 -345 10 -351 17 -17 190 -15 204 2 9 10 12 106 13 340 1 179 2 333 3
341 1 11 12 15 44 14 73 -2 77 4 77 109 0 51 -4 98 -9 106 -6 9 -29 14 -62 15
l-54 1 0 75 c0 41 -4 81 -8 88 -12 18 -41 15 -69 -7z"/>
<path d="M1410 3582 c-14 -2 -29 -8 -35 -13 -13 -12 -15 -877 -3 -901 7 -15
23 -18 101 -18 51 0 98 4 105 9 9 5 13 44 15 137 l2 129 90 1 c120 2 166 16
213 63 54 55 63 95 61 276 -1 143 -3 159 -25 204 -29 57 -81 97 -140 107 -44
6 -342 11 -384 6z m312 -246 c14 -20 9 -154 -5 -168 -12 -11 -43 -14 -113 -9
-7 1 -11 34 -12 95 l0 95 31 3 c46 4 91 -3 99 -16z"/>
<path d="M2718 3571 c-19 -13 -19 -25 -16 -235 3 -206 5 -224 25 -263 44 -81
107 -113 236 -119 48 -2 92 -6 97 -9 12 -8 13 -52 2 -59 -5 -3 -67 -6 -138 -7
-71 0 -135 -6 -141 -11 -17 -14 -18 -189 -1 -206 16 -16 293 -16 356 0 59 15
132 85 150 144 14 49 17 740 3 763 -12 19 -201 18 -213 -1 -4 -7 -8 -92 -8
-189 0 -129 -3 -179 -12 -186 -7 -6 -33 -10 -58 -10 -25 0 -51 4 -57 10 -10 7
-13 57 -13 186 0 97 -4 182 -9 189 -12 19 -177 22 -203 3z"/>
<path d="M3983 3582 c-13 -2 -24 -11 -24 -20 -1 -9 -2 -212 -3 -451 -1 -346 1
-437 12 -447 15 -15 179 -18 201 -5 11 7 14 78 15 341 1 316 2 332 20 346 28
20 80 18 101 -5 16 -18 17 -49 17 -343 0 -202 4 -328 10 -335 14 -17 189 -18
206 -1 9 9 12 97 12 333 0 363 0 365 69 365 72 0 71 4 71 -362 0 -269 2 -328
14 -337 20 -17 192 -13 206 5 8 8 10 131 8 387 l-3 374 -30 49 c-21 33 -48 60
-84 81 -49 29 -60 32 -127 30 -64 -2 -79 -7 -118 -34 l-44 -31 -33 24 c-68 50
-164 58 -246 19 -40 -18 -53 -21 -53 -10 0 8 -6 17 -12 21 -13 8 -144 12 -185
6z"/>
<path d="M2114 3569 c-10 -17 -6 -179 5 -193 7 -8 47 -11 121 -11 119 1 142
-6 145 -44 3 -33 -16 -41 -101 -43 -127 -2 -204 -40 -245 -121 -19 -36 -22
-61 -24 -174 -2 -157 10 -211 56 -260 58 -61 82 -66 289 -68 199 -2 227 3 247
48 8 16 11 137 10 373 l-2 349 -25 44 c-51 91 -102 109 -312 110 -109 1 -159
-2 -164 -10z m267 -520 c12 -19 9 -161 -3 -176 -12 -14 -96 -17 -116 -4 -21
13 -20 171 1 186 22 16 107 11 118 -6z"/>
</g>
</svg>
